%TF.GenerationSoftware,KiCad,Pcbnew,(6.0.4)*%
%TF.CreationDate,2022-04-14T17:01:16+02:00*%
%TF.ProjectId,KiCad_ArduinoUnoR3ProtoShield,4b694361-645f-4417-9264-75696e6f556e,rev?*%
%TF.SameCoordinates,Original*%
%TF.FileFunction,Soldermask,Top*%
%TF.FilePolarity,Negative*%
%FSLAX46Y46*%
G04 Gerber Fmt 4.6, Leading zero omitted, Abs format (unit mm)*
G04 Created by KiCad (PCBNEW (6.0.4)) date 2022-04-14 17:01:16*
%MOMM*%
%LPD*%
G01*
G04 APERTURE LIST*
%ADD10O,1.727200X1.727200*%
%ADD11C,3.200000*%
%ADD12C,1.600000*%
%ADD13O,1.600000X1.600000*%
%ADD14C,2.000000*%
%ADD15R,2.500000X3.500000*%
%ADD16O,3.500000X1.750000*%
%ADD17O,2.032000X1.727200*%
%ADD18R,2.032000X1.727200*%
G04 APERTURE END LIST*
D10*
%TO.C,Arduino UNO R3 Proto Shield*%
X175387000Y-101600000D03*
X177927000Y-101600000D03*
X177927000Y-99060000D03*
X175387000Y-99060000D03*
X177927000Y-96520000D03*
X162560000Y-124460000D03*
X157480000Y-124460000D03*
X154940000Y-124460000D03*
X152400000Y-124460000D03*
X149860000Y-124460000D03*
X147320000Y-124460000D03*
X144780000Y-124460000D03*
X142240000Y-124460000D03*
X175260000Y-76200000D03*
X172720000Y-76200000D03*
X170180000Y-76200000D03*
X167640000Y-76200000D03*
X165100000Y-76200000D03*
X162560000Y-76200000D03*
X160020000Y-76200000D03*
X157480000Y-76200000D03*
X138176000Y-76200000D03*
X153416000Y-76200000D03*
X150876000Y-76200000D03*
X148336000Y-76200000D03*
D11*
X177800000Y-119380000D03*
X177800000Y-91440000D03*
X127000000Y-76200000D03*
X125730000Y-124460000D03*
D10*
X130556000Y-76200000D03*
X133096000Y-76200000D03*
X135636000Y-76200000D03*
X140716000Y-76200000D03*
X143256000Y-76200000D03*
X145796000Y-76200000D03*
X139700000Y-124460000D03*
X165100000Y-124460000D03*
X167640000Y-124460000D03*
X170180000Y-124460000D03*
X172720000Y-124460000D03*
X175260000Y-124460000D03*
X175387000Y-96520000D03*
%TD*%
D12*
%TO.C,R4\u002C7K*%
X132080000Y-93980000D03*
D13*
X132080000Y-114300000D03*
%TD*%
D14*
%TO.C,Piezzo*%
X147330000Y-102870000D03*
X147310000Y-95250000D03*
%TD*%
D15*
%TO.C,Stereo3\u002C5*%
X115244000Y-119380000D03*
D16*
X120250000Y-114380000D03*
X120250000Y-124380000D03*
X120250000Y-116880000D03*
X120250000Y-121880000D03*
%TD*%
D17*
%TO.C,TR433MHz*%
X162560000Y-96520000D03*
X162560000Y-99060000D03*
D18*
X162560000Y-101600000D03*
%TD*%
M02*
