M48
; DRILL file {KiCad (6.0.4)} date Thu Apr 14 17:01:01 2022
; FORMAT={-:-/ absolute / metric / decimal}
; #@! TF.CreationDate,2022-04-14T17:01:01+02:00
; #@! TF.GenerationSoftware,Kicad,Pcbnew,(6.0.4)
; #@! TF.FileFunction,Plated,1,2,PTH
FMAT,2
METRIC
; #@! TA.AperFunction,Plated,PTH,ComponentDrill
T1C0.800
; #@! TA.AperFunction,Plated,PTH,ComponentDrill
T2C1.016
; #@! TA.AperFunction,Plated,PTH,ComponentDrill
T3C1.200
%
G90
G05
T1
X132.08Y-93.98
X132.08Y-114.3
X147.31Y-95.25
X147.33Y-102.87
T2
X130.556Y-76.2
X133.096Y-76.2
X135.636Y-76.2
X138.176Y-76.2
X139.7Y-124.46
X140.716Y-76.2
X142.24Y-124.46
X143.256Y-76.2
X144.78Y-124.46
X145.796Y-76.2
X147.32Y-124.46
X148.336Y-76.2
X149.86Y-124.46
X150.876Y-76.2
X152.4Y-124.46
X153.416Y-76.2
X154.94Y-124.46
X157.48Y-76.2
X157.48Y-124.46
X160.02Y-76.2
X162.56Y-76.2
X162.56Y-96.52
X162.56Y-99.06
X162.56Y-101.6
X162.56Y-124.46
X165.1Y-76.2
X165.1Y-124.46
X167.64Y-76.2
X167.64Y-124.46
X170.18Y-76.2
X170.18Y-124.46
X172.72Y-76.2
X172.72Y-124.46
X175.26Y-76.2
X175.26Y-124.46
X175.387Y-96.52
X175.387Y-99.06
X175.387Y-101.6
X177.927Y-96.52
X177.927Y-99.06
X177.927Y-101.6
T3
X115.244Y-119.38
X120.25Y-114.38
X120.25Y-116.88
X120.25Y-121.88
X120.25Y-124.38
T0
M30
